<svg version="1.2" baseProfile="tiny-ps" xmlns="http://www.w3.org/2000/svg" viewBox="0 0 100 103" width="100" height="103"><title>genie-svg</title><style>tspan { white-space:pre }.shp0 { fill: #000000 } .txt1 { font-size: 5px;fill: #000000;font-family: "' Helvetica  Neue'" } </style><path class="shp0" d="M64.27 30.53C57.22 30.53 51.51 24.82 51.51 17.76C51.51 10.71 57.22 5 64.27 5C71.33 5 77.04 10.71 77.04 17.76C77.04 24.82 71.33 30.53 64.27 30.53Z" /><path class="shp0" d="M46.1 55.14C46.17 54.98 46.25 54.83 46.34 54.67C46.99 53.55 48.04 52.74 49.29 52.39C49.31 52.38 49.34 52.38 49.37 52.37L54.35 51.03L61.25 49.19L69.08 47.09L70.16 46.8L76.65 45.06C77.07 44.95 77.5 44.89 77.93 44.89C80.16 44.89 82.12 46.4 82.7 48.55C83.04 49.81 82.87 51.13 82.23 52.26L82.16 52.37C82.1 52.48 82.01 52.58 81.93 52.69C81.82 52.85 81.7 53.02 81.57 53.16C81.4 53.35 81.21 53.52 81.01 53.68C80.97 53.71 80.93 53.75 80.89 53.78C80.67 53.95 80.43 54.1 80.17 54.23C80.15 54.24 80.12 54.26 80.1 54.27C79.83 54.4 79.55 54.5 79.26 54.58C79.25 54.59 79.24 54.59 79.23 54.59C79.2 54.6 79.18 54.61 79.15 54.62L69.52 57.2L65.42 58.3L64.64 58.51L51.9 61.92C51.48 62.03 51.05 62.09 50.62 62.09C50.35 62.09 50.08 62.06 49.82 62.02C47.94 61.71 46.36 60.32 45.85 58.42C45.55 57.32 45.64 56.17 46.1 55.14Z" /><path class="shp0" d="M50.62 42.42C51.26 42.42 51.91 42.5 52.54 42.67L59.03 44.41L60.11 44.7L64.27 45.82L68.44 44.7L69.52 44.41L76.01 42.67C76.64 42.51 77.29 42.42 77.93 42.42C80.45 42.42 82.73 43.7 84.08 45.7L84.08 43.64L84.08 40.82C84.08 37.41 81.37 34.65 78.04 34.65L71.97 34.65L57.87 34.65L50.51 34.65C47.17 34.65 44.47 37.41 44.47 40.82L44.47 41.23L44.47 45.7C45.81 43.7 48.1 42.42 50.62 42.42Z" /><path class="shp0" d="M79.12 64.46C78.72 64.52 78.32 64.56 77.93 64.56C77.29 64.56 76.64 64.47 76.01 64.3L64.27 61.16L52.54 64.3C51.91 64.47 51.26 64.56 50.61 64.56C50.23 64.56 49.83 64.52 49.43 64.46C48.98 64.39 48.56 64.26 48.15 64.12C48.11 64.45 48.07 64.64 48.04 64.64C47.11 72.65 40.3 78.88 32.04 78.88C23.14 78.88 15.92 71.66 15.92 62.76L15.92 62.76C15.92 80.57 30.35 95 48.16 95C65.32 95 79.35 81.58 80.33 64.66C80.3 64.66 80.27 64.48 80.25 64.18C79.88 64.3 79.51 64.4 79.12 64.46Z" /><path class="shp0" d="M82.55 55.62C82.49 55.67 82.42 55.72 82.38 55.76C82.05 56 81.7 56.22 81.33 56.41C81.29 56.44 81.24 56.46 81.18 56.49C80.83 56.66 80.45 56.81 80.06 56.93L80.03 56.94L79.87 56.98L79.83 57L79.79 57.01L70.15 59.59L69.05 59.88L76.65 61.92C77.07 62.03 77.5 62.09 77.93 62.09C78.2 62.09 78.46 62.06 78.72 62.02C80.61 61.71 82.19 60.32 82.7 58.42C82.96 57.47 82.9 56.49 82.59 55.58C82.58 55.59 82.57 55.6 82.55 55.62Z" /><path class="shp0" d="M48.56 50.03L48.58 50.02L48.66 50L48.73 49.98L53.71 48.65L59.5 47.1L59.47 47.09L58.39 46.8L51.9 45.06C51.48 44.95 51.04 44.89 50.61 44.89C48.38 44.89 46.42 46.4 45.84 48.55C45.59 49.51 45.63 50.49 45.94 51.41C46.7 50.78 47.59 50.31 48.56 50.03Z" /><text style="transform: matrix(1,0,0,1,0,115)" ><tspan x="0" y="0" class="txt1">Created by I Create Stuff</tspan></text><text style="transform: matrix(1,0,0,1,0,120)" ><tspan x="0" y="0" class="txt1">from the Noun Project</tspan></text></svg>